<svg width="1000" height="690" viewBox="0 0 1000 690" fill="none" xmlns="http://www.w3.org/2000/svg">
    <g clip-path="url(#clip0_23_2)">
        <path fill-rule="evenodd" clip-rule="evenodd" d="M712.976 94.1433C715.389 96.5549 715.389 100.466 712.976 102.877L615.214 200.607C612.801 203.019 608.889 203.019 606.476 200.607C604.063 198.195 604.063 194.285 606.476 191.873L704.239 94.1433C706.652 91.7311 710.564 91.7311 712.976 94.1433Z" fill="#8b5cf6"/>
        <path fill-rule="evenodd" clip-rule="evenodd" d="M990.721 307.297C993.134 309.708 993.134 313.619 990.721 316.031L892.959 413.76C890.546 416.172 886.634 416.172 884.221 413.76C881.809 411.348 881.809 407.438 884.221 405.026L981.984 307.297C984.397 304.884 988.309 304.884 990.721 307.297Z" fill="#8b5cf6"/>
        <path fill-rule="evenodd" clip-rule="evenodd" d="M994.981 65.4316C997.393 67.8439 997.393 71.754 994.981 74.1662L897.218 171.896C894.806 174.308 890.894 174.308 888.481 171.896C886.069 169.484 886.069 165.573 888.481 163.162L986.244 65.4316C988.656 63.02 992.568 63.02 994.981 65.4316Z" fill="#8b5cf6"/>
        <path fill-rule="evenodd" clip-rule="evenodd" d="M207.928 351.854C210.341 354.265 210.341 358.176 207.928 360.588L110.166 458.318C107.753 460.729 103.842 460.729 101.429 458.318C99.0159 455.906 99.0159 451.995 101.429 449.583L199.192 351.854C201.604 349.442 205.516 349.442 207.928 351.854Z" fill="#8b5cf6"/>
        <path fill-rule="evenodd" clip-rule="evenodd" d="M998.031 124.843C1000.44 127.255 1000.44 131.166 998.031 133.578L900.268 231.307C897.856 233.719 893.944 233.719 891.531 231.307C889.118 228.896 889.118 224.985 891.531 222.573L989.294 124.843C991.707 122.432 995.618 122.432 998.031 124.843Z" fill="#8b5cf6"/>
        <path fill-rule="evenodd" clip-rule="evenodd" d="M284.12 186.994C286.533 189.406 286.533 193.317 284.12 195.729L186.358 293.458C183.945 295.87 180.033 295.87 177.621 293.458C175.208 291.046 175.208 287.136 177.621 284.724L275.383 186.994C277.796 184.583 281.708 184.583 284.12 186.994Z" fill="#8b5cf6"/>
        <path fill-rule="evenodd" clip-rule="evenodd" d="M189.842 198.125C192.254 200.537 192.254 204.447 189.842 206.86L92.0794 304.589C89.6666 307.001 85.7547 307.001 83.3419 304.589C80.9297 302.177 80.9297 298.267 83.3419 295.855L181.105 198.125C183.517 195.713 187.429 195.713 189.842 198.125Z" fill="#8b5cf6"/>
        <path opacity="0.2" fill-rule="evenodd" clip-rule="evenodd" d="M630.241 2.00061C632.654 4.41283 632.654 8.32299 630.241 10.7352L470.236 170.708C467.823 173.119 463.911 173.119 461.498 170.708C459.086 168.295 459.086 164.385 461.498 161.974L621.504 2.00061C623.917 -0.411012 627.829 -0.411012 630.241 2.00061Z" fill="#8b5cf6"/>
        <path opacity="0.2" fill-rule="evenodd" clip-rule="evenodd" d="M171.051 519.324C173.464 521.735 173.464 525.646 171.051 528.058L11.0457 688.03C8.6329 690.442 4.72098 690.442 2.30818 688.03C-0.10403 685.618 -0.10403 681.708 2.30818 679.296L162.314 519.324C164.727 516.911 168.639 516.911 171.051 519.324Z" fill="#8b5cf6"/>
        <path opacity="0.2" fill-rule="evenodd" clip-rule="evenodd" d="M806.401 172.876C808.813 175.288 808.813 179.198 806.401 181.61L788.497 199.48C786.085 201.892 782.173 201.892 779.76 199.48C777.348 197.068 777.348 193.158 779.76 190.746L797.664 172.876C800.076 170.464 803.988 170.464 806.401 172.876Z" fill="#8b5cf6"/>
        <path opacity="0.2" fill-rule="evenodd" clip-rule="evenodd" d="M876.278 322.611C878.69 325.023 878.69 328.934 876.278 331.346L755.614 451.976C753.201 454.388 749.289 454.388 746.877 451.976C744.464 449.564 744.464 445.653 746.877 443.242L867.54 322.611C869.953 320.2 873.865 320.2 876.278 322.611Z" fill="#8b5cf6"/>
        <path opacity="0.2" fill-rule="evenodd" clip-rule="evenodd" d="M270.288 124.139C272.701 126.55 272.701 130.46 270.288 132.873L219.502 183.626C217.089 186.038 213.177 186.038 210.764 183.626C208.352 181.214 208.352 177.304 210.764 174.892L261.551 124.139C263.964 121.726 267.876 121.726 270.288 124.139Z" fill="#8b5cf6"/>
    </g>
    <defs>
        <clipPath id="clip0_23_2">
            <rect width="1000" height="689.959" fill="white"/>
        </clipPath>
    </defs>
</svg>
